<?xml version="1.0"?>
<svg xmlns="http://www.w3.org/2000/svg" xmlns:xlink="http://www.w3.org/1999/xlink" xmlns:svgjs="http://svgjs.com/svgjs" version="1.1" width="512" height="512" x="0" y="0" viewBox="0 0 512 512" style="enable-background:new 0 0 512 512" xml:space="preserve" class=""><g><path xmlns="http://www.w3.org/2000/svg" d="m497 360.096c-22.573 0-43.371 10.193-57.197 27.656l-137.159-4.539 67.116-80.802c1.601.159 3.208.242 4.815.242 12.396 0 24.792-4.715 34.229-14.146 9.151-9.146 14.192-21.31 14.192-34.249s-5.041-25.102-14.192-34.249l-25.762-25.746c.089-2.382.144-4.776.144-7.137-.002-103.182-83.994-187.126-187.234-187.126s-187.232 83.944-187.232 187.127c0 35.133 9.71 69.112 28.146 98.719l-20.854 17.301c-9.571 7.94-15.39 19.617-15.965 32.036s4.14 24.583 12.935 33.373l130.555 130.474c8.312 8.307 19.637 12.97 31.343 12.97.678 0 1.357-.016 2.038-.047 12.42-.575 24.099-6.389 32.042-15.951l7.407-8.917c.563.045 1.132.066 1.709.045l221.808-7.181c13.829 17.403 34.598 27.56 57.117 27.56 8.284 0 15-6.716 15-15v-117.413c-.001-8.284-6.717-15-15.001-15zm-104.005-105.837c0 4.922-1.918 9.549-5.399 13.029-7.18 7.177-18.862 7.176-26.042 0l-112.663-112.594c-3.481-3.479-5.399-8.106-5.399-13.029s1.917-9.549 5.399-13.029c3.59-3.588 8.305-5.382 13.02-5.382 4.716 0 9.432 1.794 13.021 5.382l112.663 112.594c3.482 3.48 5.4 8.107 5.4 13.029zm-354.275-67.132c0-86.64 70.534-157.127 157.232-157.127 78.311 0 143.427 57.512 155.294 132.489l-55.106-55.072c-18.872-18.861-49.582-18.862-68.456 0-8.584 8.579-13.551 19.811-14.134 31.849l-153.322 127.198c-14.087-24.003-21.508-51.221-21.508-79.337zm136.81 294.857c-4.077.194-7.904-1.293-10.786-4.174l-130.555-130.475c-2.879-2.877-4.362-6.701-4.173-10.765.188-4.065 2.018-7.735 5.152-10.335l187.791-155.794c1.426 1.921 3.003 3.751 4.726 5.474l112.662 112.593c.359.359.73.697 1.097 1.042l-155.562 187.282c-2.603 3.134-6.28 4.964-10.352 5.152zm306.47-7.161c-8.882-3.305-16.546-9.534-21.748-17.989-2.82-4.584-7.891-7.305-13.261-7.131l-205.091 6.64 36.477-43.915 168.537 5.577c5.401.168 10.469-2.554 13.288-7.158 5.203-8.496 12.886-14.753 21.797-18.067v82.043z" fill="#00d2ff" data-original="#000000" style="" class=""/></g></svg>
